<?xml version="1.0" standalone="no"?>
<!DOCTYPE svg PUBLIC "-//W3C//DTD SVG 20010904//EN"
 "http://www.w3.org/TR/2001/REC-SVG-20010904/DTD/svg10.dtd">
<svg version="1.0" xmlns="http://www.w3.org/2000/svg"
 width="512.000000pt" height="512.000000pt" viewBox="0 0 512.000000 512.000000"
 preserveAspectRatio="xMidYMid meet">
<metadata>
Created by potrace 1.14, written by Peter Selinger 2001-2017
</metadata>
<g transform="translate(0.000000,512.000000) scale(0.100000,-0.100000)"
fill="#000000" stroke="none">
<path d="M3180 5110 c14 -4 48 -8 76 -9 29 -1 64 -8 80 -15 15 -8 31 -13 36
-10 5 3 14 1 21 -4 11 -9 57 -14 127 -14 14 0 32 -4 41 -9 20 -10 132 -22 199
-21 28 1 40 -2 31 -7 -23 -15 3 -22 142 -36 72 -8 147 -17 165 -21 21 -4 32
-2 32 5 0 6 7 11 15 11 8 0 15 9 15 20 0 11 -7 20 -15 20 -8 0 -15 9 -15 20 0
21 26 28 32 8 3 -8 9 -8 24 0 25 14 19 16 -121 43 -100 20 -148 22 -510 25
-220 1 -389 -1 -375 -6z m870 -50 c0 -5 -21 -10 -47 -9 -39 1 -43 2 -23 9 36
12 70 12 70 0z m-103 -26 c-3 -3 -12 -4 -19 -1 -8 3 -5 6 6 6 11 1 17 -2 13
-5z m-67 -14 c0 -5 -9 -10 -19 -10 -11 0 -23 5 -26 10 -4 6 5 10 19 10 14 0
26 -4 26 -10z m230 -20 c0 -25 -15 -25 -60 0 l-35 19 48 1 c40 0 47 -3 47 -20z"/>
<path d="M4218 5043 c7 -3 16 -2 19 1 4 3 -2 6 -13 5 -11 0 -14 -3 -6 -6z"/>
<path d="M4405 5014 c22 -16 35 -18 35 -5 0 5 -12 11 -27 14 -26 5 -26 4 -8
-9z"/>
<path d="M4353 4993 c9 -2 25 -2 35 0 9 3 1 5 -18 5 -19 0 -27 -2 -17 -5z"/>
<path d="M4438 4983 c7 -3 16 -2 19 1 4 3 -2 6 -13 5 -11 0 -14 -3 -6 -6z"/>
<path d="M4215 4950 c3 -5 10 -10 16 -10 5 0 9 5 9 10 0 6 -7 10 -16 10 -8 0
-12 -4 -9 -10z"/>
<path d="M3037 4853 c-4 -3 -7 -11 -7 -17 0 -6 5 -5 12 2 6 6 9 14 7 17 -3 3
-9 2 -12 -2z"/>
<path d="M3074 4795 l6 -30 -20 24 c-11 13 -23 21 -26 18 -4 -3 6 -17 20 -30
14 -13 26 -27 26 -30 0 -7 -65 27 -88 45 -21 18 -26 0 -8 -27 14 -22 15 -25 1
-25 -8 0 -16 5 -16 10 -1 6 -2 16 -3 23 -1 6 -7 11 -14 10 -7 -2 -12 1 -12 5
0 4 -9 8 -19 8 -11 0 -17 -4 -14 -9 3 -5 -5 -6 -18 -3 l-24 7 25 -22 25 -22
-25 7 c-14 4 -35 9 -47 9 -12 1 -25 5 -29 10 -16 15 -23 6 -14 -18 12 -31 -4
-34 -22 -5 -15 23 -30 27 -22 5 4 -8 3 -15 0 -15 -10 0 -50 24 -58 35 -4 5
-11 6 -15 1 -4 -5 -2 -11 5 -13 23 -9 46 -37 32 -41 -6 -2 -17 1 -23 7 -13 13
-27 14 -27 2 0 -5 16 -18 34 -29 19 -12 45 -37 58 -56 13 -20 28 -36 35 -36 7
0 16 -8 22 -17 8 -15 11 -15 27 -3 14 12 18 12 22 2 3 -10 8 -7 19 7 16 24 48
29 40 6 -4 -8 -2 -17 4 -21 6 -3 13 2 15 12 4 14 14 19 35 18 47 -2 49 -3 49
-21 0 -13 5 -10 19 10 13 20 20 25 24 15 5 -10 9 -9 20 5 14 16 16 16 39 -3
19 -14 34 -18 60 -14 28 5 39 2 55 -15 11 -12 47 -29 79 -38 32 -10 66 -24 76
-32 9 -8 29 -15 44 -17 15 -2 31 -9 35 -16 5 -7 9 -8 9 -3 0 6 5 2 11 -8 6 -9
14 -15 18 -12 12 7 71 -15 71 -26 0 -5 10 -9 23 -9 23 0 39 -20 52 -68 4 -12
10 -20 15 -17 4 3 13 -2 20 -10 7 -8 17 -12 23 -8 5 3 7 1 4 -4 -12 -19 19
-36 42 -23 24 12 28 30 6 30 -11 0 -12 5 -5 26 14 36 13 42 -10 49 -11 4 -18
10 -15 15 3 5 0 12 -6 16 -8 4 -9 3 -5 -4 10 -17 -1 -15 -24 5 -11 10 -20 24
-20 33 0 8 -5 22 -11 30 -9 13 -10 13 -8 0 2 -19 -11 -60 -20 -60 -3 0 -17 16
-30 36 -15 21 -35 37 -52 41 -22 4 -32 15 -46 52 -19 52 -32 64 -50 49 -10 -8
-13 -4 -13 17 0 20 -4 26 -15 21 -10 -4 -19 3 -27 18 -7 17 -19 24 -37 24 -36
0 -71 12 -71 26 0 10 -44 36 -63 36 -5 0 -16 7 -24 16 -12 11 -18 12 -23 4 -6
-9 -13 -9 -28 -1 -28 15 -35 14 -29 -3 9 -23 -24 -8 -51 23 l-23 26 5 -30z
m68 -70 c4 -5 8 -14 8 -19 0 -13 -40 24 -52 49 l-11 20 24 -20 c13 -11 27 -24
31 -30z m-249 -9 c50 -46 47 -52 -8 -15 -25 17 -45 35 -45 40 0 16 14 9 53
-25z m350 -11 c10 -14 14 -25 9 -25 -6 0 -17 11 -26 25 -21 32 -7 32 17 0z
m-463 -25 c0 -5 -5 -10 -11 -10 -5 0 -7 5 -4 10 3 6 8 10 11 10 2 0 4 -4 4
-10z m15 -30 c-3 -5 -12 -10 -18 -10 -7 0 -6 4 3 10 19 12 23 12 15 0z m55
-20 c0 -11 -4 -20 -9 -20 -5 0 -11 9 -14 20 -3 13 0 20 9 20 8 0 14 -9 14 -20z
m305 10 c3 -6 -1 -7 -9 -4 -18 7 -21 14 -7 14 6 0 13 -4 16 -10z m341 -57
c-10 -10 -19 5 -10 18 6 11 8 11 12 0 2 -7 1 -15 -2 -18z m254 -232 c0 -11 -4
-9 -14 4 -8 11 -12 24 -9 28 7 11 23 -12 23 -32z"/>
<path d="M3208 4803 c7 -3 16 -2 19 1 4 3 -2 6 -13 5 -11 0 -14 -3 -6 -6z"/>
<path d="M2637 4774 c3 -7 9 -14 14 -14 14 0 10 17 -5 23 -10 4 -13 1 -9 -9z"/>
<path d="M2148 4773 c7 -3 16 -2 19 1 4 3 -2 6 -13 5 -11 0 -14 -3 -6 -6z"/>
<path d="M2328 4663 c3 -16 9 -22 19 -19 19 8 53 -11 53 -28 0 -19 75 -66 105
-66 14 0 25 -4 25 -10 0 -5 7 -10 15 -10 20 0 19 19 -2 27 -9 4 -24 14 -34 24
-14 14 -15 18 -3 23 21 8 17 28 -13 56 -26 25 -26 25 -14 2 19 -36 3 -40 -24
-7 -29 36 -33 21 -5 -15 20 -25 26 -50 13 -50 -13 1 -49 34 -56 53 -3 9 -12
17 -19 17 -7 0 -25 6 -39 14 -24 12 -25 12 -21 -11z"/>
<path d="M2690 4671 c0 -9 30 -24 36 -18 2 1 -6 8 -16 15 -11 7 -20 8 -20 3z"/>
<path d="M2260 4666 c0 -2 20 -17 45 -33 25 -15 45 -31 45 -34 0 -17 -59 -2
-92 23 -20 15 -40 28 -45 28 -4 0 -2 -4 6 -9 7 -5 12 -14 9 -21 -2 -7 -14 -2
-31 14 -32 30 -48 35 -25 9 26 -31 31 -43 14 -37 -9 3 -16 10 -16 14 0 11 -39
20 -56 13 -9 -3 -12 -13 -9 -24 8 -23 -14 -47 -36 -42 -9 3 -20 0 -23 -6 -4
-6 -2 -11 5 -11 8 0 8 -4 -1 -15 -7 -8 -19 -15 -26 -15 -8 0 -14 -5 -14 -11 0
-5 -5 -7 -10 -4 -7 4 -2 14 11 26 18 15 19 19 6 19 -10 0 -17 -4 -17 -10 0 -5
-6 -10 -12 -10 -7 0 -14 -11 -14 -24 -1 -16 3 -23 11 -20 7 3 15 -2 18 -10 9
-22 44 -20 57 3 8 16 15 18 40 11 24 -7 30 -6 30 6 0 8 -4 12 -10 9 -5 -3 -10
-3 -10 2 0 10 49 33 69 33 14 -1 13 -3 -1 -14 -10 -7 -18 -17 -18 -21 0 -4 -9
-20 -21 -36 -14 -20 -29 -29 -48 -29 -31 0 -51 -16 -51 -42 0 -10 -7 -18 -15
-18 -8 0 -15 4 -15 8 0 5 -10 8 -22 8 -17 -1 -22 4 -20 17 3 16 -1 18 -30 12
-18 -4 -38 -14 -44 -23 -6 -8 -16 -12 -21 -9 -6 4 -14 0 -17 -9 -3 -8 -10 -12
-16 -9 -5 3 -8 0 -5 -7 3 -7 -16 -31 -41 -53 -25 -22 -55 -49 -67 -60 -26 -24
-60 -92 -52 -106 3 -5 0 -6 -8 -3 -9 3 -18 -9 -27 -38 -7 -24 -20 -54 -27 -66
-8 -13 -17 -36 -19 -50 -5 -24 -37 -102 -65 -154 -5 -10 -9 -31 -9 -48 0 -16
-3 -30 -7 -30 -5 0 -16 -21 -26 -48 -10 -26 -23 -55 -28 -65 -6 -10 -7 -27 -4
-38 4 -11 2 -26 -4 -33 -7 -8 -11 -27 -11 -42 1 -48 -2 -68 -11 -80 -5 -6 -14
-46 -19 -88 -5 -42 -14 -84 -19 -94 -5 -9 -8 -35 -7 -57 2 -25 -3 -47 -13 -59
-12 -14 -13 -20 -3 -23 6 -3 9 -9 6 -14 -3 -6 -7 -37 -9 -71 -3 -52 -8 -65
-34 -92 -30 -31 -42 -54 -21 -41 6 3 10 2 10 -3 0 -5 -11 -14 -24 -21 -20 -11
-30 -31 -37 -79 0 -4 -5 -12 -10 -18 -13 -16 -13 -213 0 -246 14 -36 48 -191
55 -250 3 -25 7 -52 8 -60 2 -8 -5 -12 -19 -10 -13 2 -23 -2 -23 -7 0 -10 20
-15 41 -13 11 2 17 -40 13 -78 -3 -19 -4 -44 -4 -55 2 -63 -1 -79 -13 -94 -15
-17 -29 -61 -20 -61 3 0 12 8 19 17 12 16 13 15 14 -12 0 -16 -5 -37 -10 -45
-8 -12 -10 -10 -10 8 0 13 -4 21 -10 17 -5 -3 -7 -12 -4 -20 7 -17 -19 -30
-41 -22 -7 3 -132 9 -277 12 -354 8 -436 12 -450 22 -7 4 -40 6 -72 4 -38 -1
-62 2 -66 10 -6 9 -16 9 -40 0 -18 -6 -53 -11 -77 -11 -41 0 -43 -1 -29 -16
20 -20 82 -26 119 -12 19 7 31 7 40 0 7 -6 41 -9 77 -7 39 2 57 0 45 -5 -11
-4 26 -6 85 -4 81 2 99 0 80 -8 -26 -11 -120 -17 -120 -8 0 3 -48 5 -107 5
-59 0 -99 -1 -90 -3 28 -6 19 -22 -12 -22 -20 0 -31 6 -34 18 -4 13 -5 13 -6
-4 -1 -18 -7 -21 -38 -20 -23 1 -41 7 -45 16 -14 31 -12 -720 2 -754 9 -20 9
-21 11 -1 1 14 4 11 9 -10 l8 -30 2 30 c2 17 2 50 2 75 0 44 0 44 7 10 l8 -35
5 30 c3 17 3 8 1 -18 -3 -32 0 -47 7 -42 5 3 11 30 12 58 l2 52 3 -50 c3 -28
10 -53 18 -57 10 -6 13 -43 13 -161 0 -83 -2 -143 -5 -132 -3 16 -13 20 -49
22 l-45 2 3 -42 c2 -24 8 -42 15 -42 23 0 25 -14 2 -19 -13 -3 -62 -15 -109
-27 -47 -11 -100 -23 -118 -26 l-32 -5 0 -329 0 -329 2560 0 2560 0 0 124 c0
73 -4 127 -10 131 -6 4 -10 155 -10 421 0 228 -3 414 -7 414 -5 0 -8 -182 -8
-405 0 -223 -3 -405 -8 -405 -4 0 -24 11 -45 24 -48 30 -115 60 -171 77 -36
11 -40 14 -25 21 13 6 8 7 -16 4 -21 -2 -63 6 -105 21 -38 14 -93 34 -122 43
-28 10 -63 26 -77 35 -41 27 -116 107 -110 117 3 5 -5 6 -18 3 -13 -3 -52 3
-88 14 -36 12 -82 21 -104 21 -53 0 -135 39 -142 68 -4 12 -10 22 -14 22 -4 0
-14 15 -21 33 -7 17 -34 70 -60 117 -26 47 -50 101 -53 120 -5 32 -47 90 -64
90 -4 0 -20 16 -35 36 -30 37 -30 57 0 33 14 -12 14 -10 -2 14 -18 28 -18 29
7 52 25 23 33 24 244 30 325 10 397 13 649 26 127 6 272 12 322 13 l93 1 0 28
0 27 -77 -5 c-79 -5 -586 -29 -873 -40 -257 -10 -306 -14 -335 -25 -15 -6 -30
-8 -33 -5 -3 3 0 5 6 5 7 0 12 11 12 25 0 28 -15 33 -28 10 -5 -10 -15 -13
-25 -9 -20 7 -23 36 -4 33 19 -2 57 12 57 22 0 6 -7 12 -15 15 -8 4 -13 10
-10 15 3 4 12 6 20 2 8 -3 15 0 15 6 0 6 -4 11 -10 11 -5 0 -10 7 -10 16 0 10
6 14 15 10 16 -6 20 11 6 33 -6 9 -11 10 -15 2 -4 -6 -11 -9 -16 -6 -5 3 -11
1 -15 -5 -9 -15 -28 -12 -19 3 5 9 4 9 -6 0 -11 -10 -18 -9 -33 5 -19 17 -19
16 -13 -18 4 -19 4 -30 -1 -24 -4 6 -16 13 -25 17 -13 4 -15 2 -11 -11 6 -14
5 -15 -9 -2 -12 12 -13 20 -5 35 7 13 12 16 15 7 2 -6 8 -12 14 -12 6 0 8 7 5
14 -4 9 2 17 14 21 11 4 19 15 19 28 0 16 -3 18 -12 9 -7 -7 -22 -12 -35 -12
-17 0 -23 5 -22 23 1 28 12 59 22 58 25 -3 37 0 37 9 0 6 -8 10 -17 10 -32 0
-45 15 -38 43 4 15 11 25 15 22 5 -3 13 2 18 11 11 21 33 10 25 -12 -5 -14 -3
-14 16 -3 23 15 26 25 11 34 -15 9 -12 25 4 25 9 0 13 10 12 29 -1 33 -16 55
-16 25 0 -23 -26 -54 -61 -77 -33 -20 -41 -13 -26 21 9 20 9 26 -1 30 -19 6
-14 22 7 22 11 0 23 5 26 11 4 5 18 14 31 19 28 11 30 25 8 80 -16 40 -27 49
-39 30 -4 -6 -11 -8 -16 -5 -5 4 -9 -1 -9 -9 0 -9 -4 -16 -9 -16 -5 0 -9 6 -8
13 1 38 -5 57 -18 57 -8 0 -15 7 -15 15 0 9 -11 20 -24 24 -13 5 -26 20 -29
32 l-6 24 -22 -23 c-20 -22 -20 -24 -3 -43 16 -18 16 -19 -9 -19 -16 0 -27 6
-27 14 0 8 -7 17 -16 20 -13 5 -15 14 -9 44 5 30 4 35 -6 25 -10 -11 -26 1
-81 57 -45 46 -79 73 -99 77 -21 4 -38 18 -56 47 -15 22 -28 35 -30 29 -4 -10
-7 -10 -17 0 -8 6 -11 18 -8 26 4 10 1 13 -11 8 -10 -4 -21 3 -31 18 -20 31
-20 36 2 28 9 -3 14 -3 10 2 -11 12 11 35 32 35 23 0 80 30 97 50 11 13 12 12
13 -4 0 -18 1 -18 24 3 13 12 30 21 37 20 18 -3 69 21 69 33 0 4 -4 8 -10 8
-5 0 -10 7 -10 16 0 12 6 15 25 10 82 -20 82 -20 60 -3 -19 16 -19 16 13 17
23 0 31 4 26 12 -5 8 2 9 25 5 20 -4 30 -3 26 3 -3 6 1 10 9 10 16 0 110 -34
138 -50 11 -6 19 -6 23 0 3 6 2 10 -3 10 -5 0 -28 18 -52 40 l-43 40 39 0 c42
0 94 19 94 34 0 4 -11 5 -24 2 -17 -4 -26 -1 -30 10 -4 11 -10 13 -19 6 -7 -5
-21 -6 -32 -1 -11 4 -14 8 -7 8 7 1 30 12 52 26 22 14 45 25 52 25 16 0 88 50
88 61 0 5 -7 9 -16 9 -8 0 -22 7 -30 15 -25 24 -35 17 -32 -21 2 -23 -2 -39
-9 -41 -8 -3 -13 4 -13 19 0 13 -6 30 -12 37 -9 9 -10 15 -2 18 11 4 -5 108
-20 132 -4 6 -2 11 5 11 7 0 9 3 6 7 -4 3 0 14 8 23 13 14 13 23 -2 73 -9 33
-21 57 -29 57 -8 0 -14 7 -14 15 0 8 -6 15 -12 15 -18 0 -61 47 -48 52 6 2 2
13 -10 26 -12 12 -25 20 -30 17 -5 -3 -12 5 -16 19 -11 45 -38 59 -109 58 -36
-1 -65 3 -65 8 0 6 -9 10 -21 10 -14 0 -19 5 -16 14 7 17 -18 40 -33 31 -14
-9 -13 -32 3 -38 8 -3 9 -8 1 -16 -7 -8 -14 -1 -24 25 -10 26 -19 34 -32 31
-10 -3 -35 4 -55 14 -21 11 -55 22 -75 25 -21 4 -43 13 -49 20 -15 18 -38 18
-45 -1 -9 -23 -24 -18 -24 9 0 14 -5 28 -10 31 -16 10 0 27 21 22 10 -3 22 -1
25 4 3 5 17 9 32 9 15 0 34 5 42 10 12 8 9 10 -13 10 -38 0 -30 24 9 25 16 1
54 5 84 10 51 8 81 10 168 14 17 0 32 6 32 12 0 7 -13 8 -39 4 -29 -5 -40 -3
-44 8 -3 9 -14 13 -31 10 -16 -3 -36 3 -57 18 -18 12 -42 24 -53 25 -12 1 -24
3 -27 3 -12 2 -59 50 -59 61 0 5 -6 10 -13 10 -7 0 -24 13 -37 30 -14 16 -32
30 -40 31 -8 0 -4 4 10 9 l25 7 -27 7 c-14 4 -28 16 -31 27 -6 23 -42 26 -51
4 -8 -22 -37 -18 -43 5 -6 22 -18 26 -28 9 -4 -5 -18 -14 -31 -19 -21 -8 -23
-12 -12 -29 7 -11 17 -17 23 -12 20 15 50 7 47 -12 -2 -11 4 -27 13 -37 19
-21 8 -32 -23 -23 -13 3 -22 13 -22 24 0 20 2 21 -61 -12 -19 -9 -21 -9 -15 6
4 11 -2 24 -16 36 l-23 20 23 -6 c18 -5 22 -2 22 14 0 14 -6 21 -20 21 -11 0
-20 6 -20 13 0 6 -7 25 -15 41 -9 17 -12 34 -6 43 5 9 4 33 -1 55 -6 27 -5 45
2 53 6 7 12 29 14 49 2 20 6 39 10 43 3 3 6 15 6 25 0 13 -7 18 -25 18 -14 0
-28 7 -31 15 -4 8 -15 15 -26 15 -17 0 -18 3 -8 15 17 20 6 31 -37 39 -60 10
-71 20 -48 46 21 23 10 44 -21 38 -24 -5 -56 24 -49 44 3 8 -1 21 -9 28 -9 7
-13 17 -10 22 3 5 -3 12 -15 15 -28 7 -27 23 1 23 28 0 16 12 -17 16 -14 1
-32 7 -39 13 -8 6 -21 9 -29 5 -9 -3 -26 1 -39 10 -18 13 -19 16 -6 16 31 0 8
28 -48 60 -53 29 -64 34 -64 26z m-112 -71 c-3 -3 -9 2 -12 12 -6 14 -5 15 5
6 7 -7 10 -15 7 -18z m118 -43 c16 -23 11 -29 -9 -12 -7 6 -21 17 -32 25 -20
14 -20 15 3 12 12 -2 29 -13 38 -25z m164 -32 c0 -5 -4 -10 -10 -10 -5 0 -10
5 -10 10 0 6 5 10 10 10 6 0 10 -4 10 -10z m70 -94 c0 -3 -4 -8 -10 -11 -5 -3
-10 -1 -10 4 0 6 5 11 10 11 6 0 10 -2 10 -4z m228 -404 c3 -9 -2 -13 -14 -10
-9 1 -19 9 -22 16 -3 9 2 13 14 10 9 -1 19 -9 22 -16z m412 -313 c0 -14 -17
-10 -23 5 -4 10 -1 13 9 9 7 -3 14 -9 14 -14z m5 -69 c3 -5 1 -10 -4 -10 -6 0
-11 5 -11 10 0 6 2 10 4 10 3 0 8 -4 11 -10z m-215 -190 c0 -5 -4 -10 -10 -10
-5 0 -10 5 -10 10 0 6 5 10 10 10 6 0 10 -4 10 -10z m530 -110 c0 -5 -11 -10
-25 -10 -14 0 -25 5 -25 10 0 6 11 10 25 10 14 0 25 -4 25 -10z m-819 -507 c6
-16 12 -48 14 -73 7 -112 17 -148 73 -245 6 -11 13 -36 16 -55 5 -31 14 -40
64 -67 72 -40 97 -66 87 -90 -5 -10 -7 -23 -6 -30 3 -21 -55 -25 -115 -6 -37
11 -90 18 -144 18 l-85 0 -1 51 c0 28 -4 56 -8 62 -4 8 2 16 16 22 l23 9 -22
7 c-22 6 -32 24 -14 24 4 0 6 11 4 24 -3 14 0 41 7 61 9 28 9 39 0 50 -26 32
10 135 47 135 16 0 17 16 3 25 -8 5 -8 11 0 20 7 9 7 21 0 40 -6 15 -8 31 -4
36 11 18 35 8 45 -18z m504 -393 c3 -5 -1 -10 -9 -10 -9 0 -16 5 -16 10 0 6 4
10 9 10 6 0 13 -4 16 -10z m579 -560 c6 -23 6 -23 -7 -7 -18 22 -23 22 -30 -3
-3 -11 -1 -18 4 -14 5 3 9 1 9 -4 0 -5 -11 -12 -25 -14 -25 -5 -34 5 -15 17 6
3 10 15 10 25 0 20 31 44 41 32 4 -4 10 -18 13 -32z m-2384 -31 c0 -5 -4 -9
-10 -9 -5 0 -10 7 -10 16 0 8 5 12 10 9 6 -3 10 -10 10 -16z m973 -40 l15 -31
13 28 c25 51 109 42 130 -13 l10 -26 16 24 c9 13 17 25 18 27 1 1 23 5 49 8
46 5 48 4 59 -25 12 -32 27 -41 27 -18 0 20 33 46 54 43 25 -3 46 -33 47 -65
l1 -26 9 26 c5 14 21 32 35 40 23 12 27 11 40 -6 19 -26 18 -71 -3 -106 -21
-35 -36 -37 -60 -5 l-18 24 -21 -25 c-19 -24 -23 -25 -57 -14 -32 11 -39 10
-65 -9 -25 -18 -34 -20 -72 -11 -25 5 -50 17 -56 26 -11 15 -13 14 -19 -5 -6
-20 -11 -22 -59 -16 -34 5 -56 14 -67 28 -11 14 -18 17 -23 9 -12 -18 -73 -13
-88 8 -7 10 -24 18 -38 17 -23 -1 -25 3 -28 48 -4 55 9 76 33 56 8 -7 15 -21
15 -31 0 -26 17 -24 26 4 17 55 54 63 77 16z m1232 22 c3 -5 1 -12 -5 -16 -5
-3 -10 1 -10 9 0 18 6 21 15 7z m-19 -26 c4 -18 1 -32 -11 -45 -21 -24 -35
-26 -35 -5 0 7 -7 18 -15 22 -9 5 -12 17 -8 31 8 33 60 31 69 -3z m-86 -15 c0
-5 -2 -10 -4 -10 -3 0 -8 5 -11 10 -3 6 -1 10 4 10 6 0 11 -4 11 -10z m-2111
-37 c0 -25 -1 -25 -8 -8 -5 11 -7 23 -4 28 8 14 13 7 12 -20z m1587 -18 c-3
-8 -14 -13 -25 -12 -25 2 -25 1 -4 33 14 22 17 24 26 9 5 -9 6 -22 3 -30z
m-1639 5 c0 -16 -6 -30 -12 -30 -19 0 -10 50 11 60 0 0 1 -13 1 -30z m2188
-12 c-8 -36 -12 -44 -20 -36 -8 8 7 68 17 68 6 0 7 -14 3 -32z m-2179 -61 c4
-4 -2 -7 -14 -7 -12 0 -22 4 -22 9 0 10 26 9 36 -2z m9 -64 c-9 -51 -15 -57
-30 -36 -9 11 -10 22 -4 28 5 5 9 17 9 27 0 10 7 18 16 18 13 0 15 -7 9 -37z
m1673 -12 c11 -7 11 -9 -2 -14 -9 -4 -13 -13 -10 -22 4 -10 0 -15 -15 -15 -12
0 -21 6 -22 13 0 6 -5 3 -10 -8 -22 -44 -119 -53 -125 -11 -2 13 2 17 16 13
11 -3 24 1 31 9 6 7 26 16 45 20 19 3 37 10 40 15 7 11 35 11 52 0z m-1704
-73 c-3 -4 0 -8 5 -8 6 0 11 -9 11 -21 0 -11 -4 -18 -9 -14 -5 3 -12 -9 -14
-27 -2 -18 -4 -1 -5 37 -1 46 1 65 7 55 6 -8 7 -18 5 -22z m1237 -8 c22 0 25
-15 5 -23 -22 -9 -56 4 -56 20 0 10 6 13 16 9 9 -3 24 -6 35 -6z m1289 -74 c0
-7 -6 -18 -12 -25 -10 -11 -10 -14 0 -18 13 -5 17 -24 5 -22 -24 4 -41 -3 -47
-18 -3 -10 -9 -24 -12 -30 -3 -8 1 -13 11 -13 9 0 15 -6 13 -12 -1 -7 3 -28
11 -46 16 -38 11 -48 -17 -31 -16 10 -18 18 -11 36 8 22 2 28 -23 24 -5 0 -8
4 -8 10 0 8 -4 8 -13 1 -15 -12 -46 2 -33 15 5 4 11 2 13 -5 4 -9 11 -6 24 9
10 12 19 27 19 32 0 5 8 16 17 23 10 7 15 16 11 20 -4 4 -16 -4 -27 -17 -11
-13 -20 -19 -21 -13 0 6 7 17 15 24 9 7 22 27 31 45 11 25 20 32 35 28 10 -3
19 -11 19 -17z m-2733 8 c-3 -3 -12 -4 -19 -1 -8 3 -5 6 6 6 11 1 17 -2 13 -5z
m-419 -169 l3 -150 -68 1 c-112 1 -103 -6 -103 79 0 61 3 75 16 75 11 0 13 6
9 19 -4 14 0 21 17 26 13 4 31 16 41 26 17 18 16 19 -30 21 -39 1 -42 2 -14 5
31 4 61 22 61 37 0 3 -12 6 -27 7 -23 0 -24 2 -9 8 10 4 37 5 60 2 l41 -6 3
-150z m-131 149 c-3 -3 -12 -4 -19 -1 -8 3 -5 6 6 6 11 1 17 -2 13 -5z m578
-1 c-48 -10 -46 -17 5 -23 30 -3 54 -9 52 -15 -3 -11 -9 -11 -64 -2 -21 3 -38
2 -38 -2 0 -5 24 -12 54 -15 l54 -7 6 -44 c4 -24 7 -72 7 -107 1 -34 5 -66 11
-69 21 -13 -103 -204 -132 -204 -9 0 -16 12 -18 28 -2 15 -8 27 -13 27 -13 0
-11 30 6 96 9 34 15 108 16 187 0 71 3 136 6 144 3 7 19 13 37 12 20 -1 24 -3
11 -6z m186 -42 c-6 -4 -9 -15 -5 -24 3 -10 1 -17 -5 -17 -6 0 -11 9 -11 20 0
24 23 54 29 38 2 -6 -2 -14 -8 -17z m49 8 c0 -5 -4 -9 -10 -9 -5 0 -10 7 -10
16 0 8 5 12 10 9 6 -3 10 -10 10 -16z m2336 -44 c-9 -9 -16 -25 -16 -36 0 -12
-7 -19 -20 -19 -11 0 -20 2 -20 5 0 9 63 75 68 71 2 -3 -3 -12 -12 -21z
m-2382 -75 c-28 -51 -42 -61 -26 -19 5 13 6 33 2 44 -6 16 -1 22 19 31 36 15
37 3 5 -56z m2319 -5 c4 -8 2 -17 -3 -20 -6 -4 -10 3 -10 14 0 25 6 27 13 6z
m57 5 c0 -5 -4 -10 -10 -10 -5 0 -10 5 -10 10 0 6 5 10 10 10 6 0 10 -4 10
-10z m59 -52 c1 -5 -4 -8 -10 -8 -5 0 -8 4 -4 9 3 5 1 12 -5 16 -6 4 -10 -4
-10 -19 0 -14 5 -28 10 -31 6 -3 10 -18 10 -32 0 -15 -3 -23 -7 -19 -4 4 -8
15 -8 24 0 11 -7 16 -17 14 -10 -2 -18 2 -18 8 0 5 5 10 10 10 6 0 10 13 10
29 0 45 35 44 39 -1z m-59 12 c0 -5 -4 -10 -10 -10 -5 0 -10 5 -10 10 0 6 5
10 10 10 6 0 10 -4 10 -10z m-50 -10 c0 -5 7 -10 15 -10 8 0 15 -4 15 -10 0
-17 -25 -11 -38 10 -7 12 -8 20 -2 20 5 0 10 -4 10 -10z m-3273 -87 c-3 -10
-5 -2 -5 17 0 19 2 27 5 18 2 -10 2 -26 0 -35z m3266 -3 c3 -22 1 -53 -3 -68
-9 -31 -10 -28 -16 51 -5 64 10 79 19 17z m-2636 -197 c-2 -37 -3 -9 -3 62 0
72 1 102 3 68 2 -34 2 -93 0 -130z m2028 148 c-6 -5 -25 10 -25 20 0 5 6 4 14
-3 8 -7 12 -15 11 -17z m710 -2 c-6 -17 -9 -19 -16 -8 -12 19 -11 32 1 24 6
-3 10 -1 10 6 0 7 3 10 6 6 3 -3 3 -15 -1 -28z m-31 -39 c-5 -5 -9 4 -10 23
-1 30 -1 30 9 9 6 -14 7 -26 1 -32z m-727 -13 c3 -6 1 -7 -5 -3 -15 9 -15 3 0
-29 6 -14 15 -25 20 -25 5 0 6 4 3 10 -3 6 1 7 9 4 9 -3 14 -10 11 -14 -5 -7
25 -21 54 -24 8 0 16 -8 18 -16 4 -12 3 -12 -5 -1 -6 8 -12 9 -16 3 -3 -6 1
-18 10 -26 9 -10 11 -16 4 -16 -7 0 -9 -7 -6 -16 5 -14 4 -15 -8 -5 -8 7 -12
19 -9 27 3 8 0 14 -6 14 -20 0 -11 -35 19 -67 16 -18 35 -33 41 -33 6 0 9 -7
6 -15 -4 -8 -2 -17 4 -21 6 -3 8 -12 5 -19 -2 -7 -2 -16 2 -19 3 -4 7 -26 8
-49 l2 -42 -21 50 c-12 28 -30 62 -41 75 l-18 25 6 -33 c4 -24 2 -32 -7 -29
-6 2 -12 18 -12 35 0 17 -3 30 -7 29 -5 -1 -18 20 -31 48 -21 45 -22 52 -9 78
15 30 11 44 -8 32 -6 -4 -9 -14 -6 -22 4 -9 1 -13 -6 -11 -7 3 -16 27 -21 53
-5 27 -13 55 -18 61 -8 9 -5 11 11 7 11 -3 23 -10 27 -16z m80 1 c-3 -8 -6 -5
-6 6 -1 11 2 17 5 13 3 -3 4 -12 1 -19z m663 -29 c0 -4 -7 -6 -15 -3 -8 4 -15
10 -15 15 0 4 7 6 15 3 8 -4 15 -10 15 -15z m-645 1 c3 -5 1 -10 -4 -10 -6 0
-11 5 -11 10 0 6 2 10 4 10 3 0 8 -4 11 -10z m-145 -80 c5 0 10 5 12 10 2 6 9
-4 15 -22 10 -26 10 -30 0 -18 -17 21 -47 24 -47 5 0 -8 -4 -15 -10 -15 -5 0
-10 2 -10 4 0 2 -3 12 -7 22 -5 13 -3 15 8 10 8 -4 6 -1 -4 7 -13 11 -15 16
-5 19 7 3 19 -1 26 -9 7 -7 17 -13 22 -13z m-704 -33 c17 -16 17 -18 1 -34
-11 -11 -17 -13 -17 -5 0 7 5 12 12 12 6 0 0 13 -15 28 -15 15 -27 35 -27 43
1 10 5 8 15 -6 8 -11 22 -28 31 -38z m-1351 -7 c-6 -20 -12 -21 -47 -16 -26 4
-37 3 -33 -4 3 -5 1 -10 -4 -10 -6 0 -11 7 -11 16 0 14 8 16 41 11 35 -5 42
-2 46 14 3 11 8 18 10 15 3 -2 2 -14 -2 -26z m2786 8 c11 -21 11 -22 -4 -9
-10 7 -17 17 -17 22 0 15 9 10 21 -13z m59 2 c0 -5 -7 -10 -16 -10 -8 0 -12 5
-9 10 3 6 10 10 16 10 5 0 9 -4 9 -10z m-1040 -16 c0 -8 -4 -12 -10 -9 -5 3
-10 10 -10 16 0 5 5 9 10 9 6 0 10 -7 10 -16z m125 -4 c3 -5 1 -10 -4 -10 -6
0 -11 5 -11 10 0 6 2 10 4 10 3 0 8 -4 11 -10z m338 -12 c9 -31 2 -33 -11 -3
-6 14 -8 25 -3 25 5 0 11 -10 14 -22z m-2664 -44 c0 11 4 16 7 13 4 -3 15 -2
24 3 14 7 19 5 23 -10 4 -15 0 -20 -15 -20 -10 0 -28 -5 -39 -10 -18 -10 -19
-7 -18 37 l2 48 7 -40 c4 -22 8 -31 9 -21z m1801 40 c0 -2 -7 -4 -15 -4 -8 0
-15 4 -15 10 0 5 7 7 15 4 8 -4 15 -8 15 -10z m-143 -23 c10 -16 9 -20 -5 -26
-9 -3 -13 -3 -9 1 4 4 0 18 -8 30 -11 17 -11 22 -2 19 7 -3 18 -14 24 -24z
m448 1 c-3 -3 -11 0 -18 7 -9 10 -8 11 6 5 10 -3 15 -9 12 -12z m337 -19 c5
-37 3 -51 -7 -42 -8 8 -12 79 -5 79 4 0 10 -17 12 -37z m-2265 -17 c-4 -10
-15 -10 -51 -2 -46 11 -62 25 -28 27 9 0 25 2 35 4 10 2 17 -3 18 -13 0 -11 4
-8 11 8 9 21 12 22 15 7 3 -10 2 -24 0 -31z m1993 7 c0 -12 -2 -12 -15 1 -8 8
-15 17 -15 20 0 3 7 3 15 0 8 -4 15 -13 15 -21z m1040 13 c0 -7 -60 -12 -70
-6 -6 4 7 7 30 8 22 1 40 0 40 -2z m-1113 -28 c-3 -8 -6 -5 -6 6 -1 11 2 17 5
13 3 -3 4 -12 1 -19z m133 12 c8 -5 11 -10 5 -10 -5 0 -17 5 -25 10 -8 5 -10
10 -5 10 6 0 17 -5 25 -10z m-450 -35 c0 -5 -5 -3 -10 5 -5 8 -10 20 -10 25 0
6 5 3 10 -5 5 -8 10 -19 10 -25z m-120 15 c0 -5 -2 -10 -4 -10 -3 0 -8 5 -11
10 -3 6 -1 10 4 10 6 0 11 -4 11 -10z m1010 0 c0 -5 -4 -10 -10 -10 -5 0 -10
5 -10 10 0 6 5 10 10 10 6 0 10 -4 10 -10z m-525 -20 c11 -11 31 -29 45 -41
l25 -20 -33 18 c-35 19 -81 63 -67 63 5 0 18 -9 30 -20z m-35 -15 c11 -13 10
-14 -4 -9 -9 3 -16 10 -16 15 0 13 6 11 20 -6z m570 -6 c0 -6 -4 -7 -10 -4 -5
3 -10 11 -10 16 0 6 5 7 10 4 6 -3 10 -11 10 -16z m-2780 1 c0 -5 -5 -10 -11
-10 -5 0 -7 5 -4 10 3 6 8 10 11 10 2 0 4 -4 4 -10z m1730 -10 c0 -13 -29 -32
-40 -25 -6 3 -10 -3 -10 -14 0 -12 -4 -21 -10 -21 -5 0 -10 -8 -10 -19 0 -10
-7 -24 -15 -31 -12 -10 -11 -2 5 34 11 26 20 53 19 59 0 8 -2 8 -6 0 -7 -18
-23 -16 -23 1 0 9 7 13 20 11 11 -2 20 0 20 4 0 5 11 9 25 9 14 0 25 -4 25 -8z
m904 -53 c9 -22 11 -35 4 -31 -7 5 -9 0 -6 -14 4 -12 2 -20 -3 -17 -4 3 -7 18
-7 33 1 15 -2 38 -6 52 -12 36 -1 21 18 -23z m165 3 c0 -10 -3 -8 -9 5 -12 27
-12 43 0 25 5 -8 9 -22 9 -30z m-243 -45 c-3 -24 0 -45 5 -47 5 -2 12 -27 14
-55 l4 -52 -22 22 c-14 14 -17 22 -8 25 9 3 9 7 0 18 -13 15 -19 114 -8 114 5
0 5 7 2 17 -4 11 -3 14 5 9 8 -4 10 -24 8 -51z m151 33 c-3 -8 -6 -5 -6 6 -1
11 2 17 5 13 3 -3 4 -12 1 -19z m-237 -55 c0 -8 -5 -11 -11 -7 -7 4 -9 0 -5
-14 4 -11 2 -23 -4 -27 -6 -4 -10 9 -10 34 0 32 3 39 15 35 8 -4 15 -13 15
-21z m-156 -48 c3 -8 1 -15 -4 -15 -6 0 -10 7 -10 15 0 8 2 15 4 15 2 0 6 -7
10 -15z m37 -22 c-12 -20 -14 -14 -5 12 4 9 9 14 11 11 3 -2 0 -13 -6 -23z
m155 11 c10 -8 13 -12 5 -8 -7 3 -17 1 -21 -6 -5 -8 -9 -5 -13 9 -6 25 2 27
29 5z m-948 -55 c-3 -20 -5 -19 -9 9 -3 20 -2 29 4 23 5 -5 7 -19 5 -32z m879
-6 c-3 -10 -5 -4 -5 12 0 17 2 24 5 18 2 -7 2 -21 0 -30z m-231 -36 c-13 -67
-21 -87 -37 -87 -5 0 -2 11 6 24 9 13 18 47 22 75 3 28 9 51 13 51 4 0 2 -28
-4 -63z m-41 -37 c-9 -41 -17 -33 -9 9 4 17 9 30 11 27 3 -2 2 -19 -2 -36z
m165 20 c0 -5 -5 -10 -11 -10 -5 0 -7 5 -4 10 3 6 8 10 11 10 2 0 4 -4 4 -10z
m-30 -19 c0 -4 -13 -17 -30 -29 -19 -14 -27 -17 -24 -8 3 8 12 17 20 20 8 3
14 13 14 21 0 9 5 13 10 10 6 -3 10 -10 10 -14z m-10 -76 c0 -8 -4 -16 -9 -19
-5 -3 -8 5 -7 18 1 25 16 26 16 1z m-100 -5 c0 -5 -4 -10 -10 -10 -5 0 -10 5
-10 10 0 6 5 10 10 10 6 0 10 -4 10 -10z"/>
<path d="M3490 1810 c0 -5 5 -10 10 -10 6 0 10 5 10 10 0 6 -4 10 -10 10 -5 0
-10 -4 -10 -10z"/>
<path d="M3740 1410 c0 -5 5 -10 10 -10 6 0 10 5 10 10 0 6 -4 10 -10 10 -5 0
-10 -4 -10 -10z"/>
<path d="M2977 909 c4 -13 8 -18 11 -10 2 7 -1 18 -6 23 -8 8 -9 4 -5 -13z"/>
<path d="M2990 840 c0 -13 5 -18 15 -14 12 5 13 10 4 20 -15 19 -19 18 -19 -6z"/>
<path d="M3047 780 c7 -25 23 -37 23 -17 0 8 -6 20 -14 26 -12 10 -13 8 -9 -9z"/>
<path d="M1910 4620 c0 -5 5 -10 11 -10 5 0 7 5 4 10 -3 6 -8 10 -11 10 -2 0
-4 -4 -4 -10z"/>
<path d="M2612 4611 c2 -14 9 -26 16 -29 17 -5 15 10 -3 34 -15 18 -15 18 -13
-5z"/>
<path d="M2678 4613 c7 -3 16 -2 19 1 4 3 -2 6 -13 5 -11 0 -14 -3 -6 -6z"/>
<path d="M2535 4601 c-3 -5 -1 -12 5 -16 5 -3 10 0 10 7 1 7 9 3 21 -11 11
-13 23 -21 27 -17 4 4 -4 16 -17 27 -26 21 -37 24 -46 10z"/>
<path d="M2680 4580 c0 -5 5 -10 10 -10 6 0 10 5 10 10 0 6 -4 10 -10 10 -5 0
-10 -4 -10 -10z"/>
<path d="M3534 4581 c4 -5 20 -16 36 -25 17 -8 28 -10 25 -5 -4 5 -20 16 -37
25 -16 9 -27 11 -24 5z"/>
<path d="M1910 4460 c0 -5 5 -10 11 -10 5 0 7 5 4 10 -3 6 -8 10 -11 10 -2 0
-4 -4 -4 -10z"/>
<path d="M3803 4293 c-7 -2 -13 -14 -13 -25 0 -13 5 -18 14 -15 16 6 26 -12
26 -48 0 -30 25 -52 34 -29 7 18 -1 37 -13 30 -4 -3 -7 8 -6 24 1 16 -2 27 -7
24 -4 -3 -8 6 -8 20 0 26 -4 29 -27 19z"/>
<path d="M3861 4121 c-6 -4 -9 -15 -5 -25 8 -20 44 -42 44 -26 0 5 -4 10 -10
10 -16 0 -12 18 5 22 13 2 12 5 -3 15 -10 6 -24 8 -31 4z"/>
<path d="M257 4031 c-14 -28 -14 -30 11 -36 14 -3 29 -2 35 4 7 7 22 5 46 -5
37 -16 160 -35 246 -39 28 -1 61 -5 74 -10 27 -8 97 -16 351 -39 96 -9 197
-20 223 -25 26 -4 62 -5 80 -1 l32 8 -35 1 c-41 2 -68 15 -51 25 25 16 8 27
-37 25 -26 -1 -56 3 -68 9 -24 13 -166 32 -238 32 -27 0 -63 4 -80 9 -17 6
-112 17 -211 26 -99 9 -211 23 -250 31 -99 20 -111 19 -128 -15z"/>
<path d="M190 4035 c0 -8 5 -15 10 -15 6 0 10 7 10 15 0 8 -4 15 -10 15 -5 0
-10 -7 -10 -15z"/>
<path d="M221 4034 c0 -11 3 -14 6 -6 3 7 2 16 -1 19 -3 4 -6 -2 -5 -13z"/>
<path d="M3900 4031 c1 -9 37 -51 44 -51 3 0 6 7 6 15 0 8 -4 15 -10 15 -5 0
-10 6 -10 13 0 8 -7 14 -15 14 -8 0 -15 -3 -15 -6z"/>
<path d="M1303 3923 c9 -2 25 -2 35 0 9 3 1 5 -18 5 -19 0 -27 -2 -17 -5z"/>
<path d="M1390 3890 c0 -5 5 -10 10 -10 6 0 10 5 10 10 0 6 -4 10 -10 10 -5 0
-10 -4 -10 -10z"/>
<path d="M3970 3877 c0 -10 7 -20 15 -23 8 -4 13 -10 10 -15 -7 -10 16 -49 29
-49 6 0 5 5 -2 12 -7 7 -12 20 -12 29 0 9 -9 27 -20 40 -16 21 -19 21 -20 6z"/>
<path d="M3971 3820 c0 -8 4 -24 9 -35 l9 -20 0 20 c0 11 -4 27 -9 35 -9 13
-10 13 -9 0z"/>
<path d="M4000 3762 c0 -4 9 -25 20 -47 19 -37 20 -38 20 -11 0 31 -16 66 -30
66 -6 0 -10 -4 -10 -8z"/>
<path d="M4001 3574 c0 -11 3 -14 6 -6 3 7 2 16 -1 19 -3 4 -6 -2 -5 -13z"/>
<path d="M3148 3543 c7 -3 16 -2 19 1 4 3 -2 6 -13 5 -11 0 -14 -3 -6 -6z"/>
<path d="M4000 3540 c0 -5 5 -10 11 -10 5 0 7 5 4 10 -3 6 -8 10 -11 10 -2 0
-4 -4 -4 -10z"/>
<path d="M3080 3526 c0 -2 9 -6 20 -9 11 -3 18 -1 14 4 -5 9 -34 13 -34 5z"/>
<path d="M3991 3511 c-12 -8 -9 -15 14 -43 l28 -33 -6 34 c-4 18 -7 37 -7 42
0 11 -11 11 -29 0z"/>
<path d="M3943 3451 c4 -19 3 -39 -3 -46 -7 -8 -4 -17 10 -30 11 -10 20 -28
20 -41 0 -13 5 -26 11 -30 8 -5 9 -31 4 -88 -4 -45 -7 -88 -7 -96 0 -8 -4 -42
-10 -75 -11 -62 -16 -94 -21 -132 -2 -12 -8 -28 -14 -35 -11 -14 -26 -105 -44
-275 -6 -57 -15 -103 -19 -103 -4 0 -6 -23 -4 -52 1 -28 -2 -62 -7 -75 -7 -19
-5 -23 11 -23 11 0 20 -4 20 -10 0 -5 -5 -10 -11 -10 -5 0 -8 -4 -5 -8 2 -4
-4 -8 -14 -8 -10 0 -16 4 -14 8 3 4 0 8 -5 8 -6 0 -11 -4 -11 -9 0 -5 -12 -11
-27 -13 -14 -2 -28 -9 -30 -15 -4 -10 3 -10 26 -2 39 14 66 5 30 -9 -34 -13
-44 -49 -19 -62 13 -7 21 -7 25 0 3 5 -1 10 -9 10 -9 0 -16 7 -16 16 0 12 6
15 25 10 25 -6 30 0 26 32 -3 17 10 15 25 -5 16 -21 18 -63 4 -63 -5 0 -10
-15 -10 -32 0 -25 -3 -29 -10 -18 -5 8 -10 11 -10 5 0 -21 17 -30 55 -29 66 3
80 12 93 57 11 35 10 53 -1 97 -8 30 -13 81 -13 113 2 47 -2 60 -16 68 -10 5
-18 6 -18 2 0 -4 -5 -2 -11 4 -6 6 -8 16 -4 23 5 8 11 6 19 -6 17 -22 26 -7
28 43 1 21 3 32 5 26 3 -9 12 -9 30 -2 14 5 29 7 32 3 3 -3 7 -42 7 -87 1 -45
7 -107 13 -137 16 -76 5 -162 -24 -196 -19 -22 -22 -31 -13 -48 10 -19 11 -19
24 -1 8 10 14 15 14 9 1 -5 8 7 16 26 8 19 22 38 30 43 7 4 14 15 14 23 0 26
52 114 67 114 13 0 13 3 3 15 -13 16 -7 45 9 45 5 0 11 -6 14 -12 2 -7 2 -4 0
7 -3 11 -4 38 -2 60 10 175 1 232 -46 279 -18 18 -80 22 -90 6 -10 -17 -25
-11 -25 9 0 11 -4 23 -10 26 -5 3 -10 16 -10 28 0 12 -2 42 -5 67 -6 62 -6
149 1 183 4 17 1 27 -6 27 -9 0 -10 11 -6 38 9 46 9 94 3 150 -5 39 -4 42 10
30 14 -11 15 -11 11 2 -2 8 -15 17 -28 18 -18 3 -20 6 -9 13 12 8 12 10 -1 19
-10 6 -11 10 -2 10 6 0 12 7 12 16 0 13 -3 14 -14 5 -12 -10 -13 -8 -9 10 4
15 3 20 -5 15 -8 -4 -12 0 -12 11 0 11 -6 25 -12 32 -11 11 -8 12 12 6 17 -4
21 -3 12 3 -8 5 -14 13 -14 18 0 5 -5 8 -10 6 -6 -1 -17 3 -26 10 -14 11 -15
9 -9 -21z"/>
<path d="M4051 3420 c0 -19 4 -42 9 -50 8 -12 10 -11 9 5 -1 11 -5 34 -9 50
l-8 30 -1 -35z"/>
<path d="M4056 3331 c-4 -7 -5 -15 -2 -18 9 -9 19 4 14 18 -4 11 -6 11 -12 0z"/>
<path d="M4092 3310 c0 -14 2 -19 5 -12 2 6 2 18 0 25 -3 6 -5 1 -5 -13z"/>
<path d="M3770 3269 c0 -5 5 -7 10 -4 6 3 10 8 10 11 0 2 -4 4 -10 4 -5 0 -10
-5 -10 -11z"/>
<path d="M4082 3255 c0 -16 2 -22 5 -12 2 9 2 23 0 30 -3 6 -5 -1 -5 -18z"/>
<path d="M201 3214 c0 -11 3 -14 6 -6 3 7 2 16 -1 19 -3 4 -6 -2 -5 -13z"/>
<path d="M220 3215 c0 -8 5 -15 10 -15 6 0 10 7 10 15 0 8 -4 15 -10 15 -5 0
-10 -7 -10 -15z"/>
<path d="M250 3216 c0 -15 29 -23 145 -37 188 -22 835 -72 842 -65 3 3 1 12
-6 20 -13 15 -38 19 -231 35 -69 6 -142 16 -162 22 -20 7 -55 9 -77 6 -23 -3
-71 -1 -109 3 -37 5 -105 11 -152 14 -47 3 -113 8 -147 12 -49 5 -63 3 -63 -7
0 -10 -3 -10 -12 -1 -16 16 -28 15 -28 -2z"/>
<path d="M4067 3195 c3 -8 9 -12 14 -9 12 7 11 11 -5 17 -10 4 -13 1 -9 -8z"/>
<path d="M4078 3158 c-6 -16 2 -48 11 -48 9 0 8 46 0 55 -4 3 -9 0 -11 -7z"/>
<path d="M1280 3006 c0 -9 -4 -14 -10 -11 -5 3 -18 1 -27 -4 -15 -9 -14 -10
10 -11 26 0 47 23 33 37 -3 4 -6 -1 -6 -11z"/>
<path d="M1306 3003 c-6 -14 -5 -15 5 -6 7 7 10 15 7 18 -3 3 -9 -2 -12 -12z"/>
<path d="M1175 2960 c-8 -13 15 -13 35 0 12 8 11 10 -7 10 -12 0 -25 -4 -28
-10z"/>
<path d="M1099 2953 c22 -9 -60 -34 -94 -28 -23 4 -25 3 -10 -4 16 -6 10 -9
-28 -15 -27 -4 -51 -14 -54 -22 -3 -7 -9 -11 -14 -8 -5 3 -17 0 -26 -5 -17
-10 -17 -10 0 -11 20 0 74 16 207 61 47 16 75 27 63 25 -13 -2 -26 0 -29 5 -3
5 -11 9 -17 8 -7 0 -7 -3 2 -6z"/>
<path d="M1120 2858 c-146 -43 -237 -71 -315 -95 -53 -17 -196 -29 -222 -19
-14 6 -14 8 3 22 18 14 16 15 -21 9 -21 -4 -52 -14 -69 -22 -22 -12 -57 -14
-157 -11 -90 2 -129 0 -129 -8 0 -13 118 -30 320 -44 80 -6 165 -13 190 -15
319 -28 482 -34 487 -18 5 15 -101 31 -247 38 -69 3 -143 9 -165 12 l-40 6 30
13 c17 7 41 14 55 14 23 1 23 2 5 10 -19 8 -18 9 4 9 28 1 121 27 167 46 18 8
42 11 55 8 16 -3 20 -2 12 4 -9 6 12 16 62 31 41 12 79 22 86 22 6 0 17 7 25
15 20 20 21 20 -136 -27z"/>
<path d="M4080 2861 c-16 -31 -5 -71 20 -71 13 0 18 5 14 15 -4 8 -11 15 -16
15 -6 0 -6 6 2 14 8 10 8 21 2 32 -9 16 -11 15 -22 -5z"/>
<path d="M790 2860 c-13 -9 -13 -10 0 -11 8 0 -1 -7 -20 -14 -47 -18 -27 -18
30 -1 33 11 38 15 20 15 -20 1 -22 3 -10 11 8 5 11 10 5 10 -5 0 -17 -5 -25
-10z"/>
<path d="M1100 2826 c0 -2 7 -7 16 -10 8 -3 12 -2 9 4 -6 10 -25 14 -25 6z"/>
<path d="M1170 2810 c-8 -5 -10 -10 -5 -10 6 0 17 5 25 10 8 5 11 10 5 10 -5
0 -17 -5 -25 -10z"/>
<path d="M655 2800 c3 -5 13 -10 21 -10 8 0 12 5 9 10 -3 6 -13 10 -21 10 -8
0 -12 -4 -9 -10z"/>
<path d="M608 2788 c6 -6 18 -8 28 -6 14 3 12 5 -9 10 -19 3 -25 2 -19 -4z"/>
<path d="M3750 2631 c0 -5 11 -16 25 -25 27 -18 32 -11 11 17 -14 18 -36 23
-36 8z"/>
<path d="M3750 2540 c0 -5 7 -10 15 -10 8 0 15 5 15 10 0 6 -7 10 -15 10 -8 0
-15 -4 -15 -10z"/>
<path d="M5019 2435 c-53 -5 -102 -15 -110 -21 -8 -7 -48 -14 -89 -18 -41 -3
-109 -12 -150 -21 -41 -8 -95 -17 -120 -20 -25 -3 -54 -8 -66 -10 -11 -3 -69
-11 -128 -20 -116 -16 -155 -30 -137 -48 8 -8 28 -7 73 1 35 6 100 17 145 22
46 6 97 14 115 17 18 3 45 6 61 6 15 0 27 3 27 8 0 4 24 9 53 11 52 4 419 67
425 73 2 2 2 10 0 17 -2 11 -20 12 -99 3z"/>
<path d="M4728 2433 c6 -2 18 -2 25 0 6 3 1 5 -13 5 -14 0 -19 -2 -12 -5z"/>
<path d="M272 2405 c4 -4 282 -26 503 -39 50 -3 132 -9 183 -12 59 -4 92 -3
92 3 0 14 -65 23 -205 29 -66 2 -164 9 -219 14 -100 10 -363 14 -354 5z"/>
<path d="M433 2264 c0 -22 41 -64 66 -66 27 -3 72 46 55 61 -16 15 -121 19
-121 5z"/>
<path d="M1090 2217 c0 -34 9 -38 32 -15 22 22 22 23 -9 32 -20 6 -23 4 -23
-17z"/>
<path d="M3420 2210 c0 -5 5 -10 10 -10 6 0 10 5 10 10 0 6 -4 10 -10 10 -5 0
-10 -4 -10 -10z"/>
<path d="M440 2188 c0 -18 52 -24 285 -33 66 -3 163 -8 216 -11 67 -5 98 -3
103 5 5 8 -22 12 -96 13 -124 2 -140 3 -338 12 -98 5 -158 12 -162 20 -5 7 -8
5 -8 -6z"/>
<path d="M345 2180 c-4 -6 12 -10 40 -10 28 0 44 4 40 10 -3 6 -21 10 -40 10
-19 0 -37 -4 -40 -10z"/>
<path d="M4447 2174 c-9 -10 2 -24 19 -24 8 0 14 7 14 15 0 15 -21 21 -33 9z"/>
<path d="M3785 2157 c-19 -15 -13 -37 11 -37 8 0 14 -5 14 -10 0 -7 -6 -7 -20
0 -17 9 -20 8 -20 -9 0 -11 -6 -22 -12 -24 -10 -4 -10 -6 -1 -6 6 -1 14 3 18
9 3 5 12 7 19 4 15 -6 26 15 31 59 4 30 -10 35 -40 14z"/>
<path d="M4730 2145 c0 -8 7 -15 15 -15 8 0 15 7 15 15 0 8 -7 15 -15 15 -8 0
-15 -7 -15 -15z"/>
<path d="M3870 2120 c0 -5 5 -10 10 -10 6 0 10 5 10 10 0 6 -4 10 -10 10 -5 0
-10 -4 -10 -10z"/>
<path d="M4427 2114 c-14 -14 -7 -31 19 -43 22 -9 31 -9 49 3 20 13 24 13 29
1 3 -8 10 -15 16 -15 13 0 13 47 0 55 -5 3 -10 1 -10 -6 0 -7 -4 -8 -12 -2
-16 12 -81 17 -91 7z"/>
<path d="M4565 2089 c-4 -11 -5 -22 -3 -24 2 -2 38 -6 81 -8 66 -3 77 -2 77
13 0 39 -71 58 -85 23 -6 -17 -7 -17 -16 0 -14 23 -46 22 -54 -4z"/>
<path d="M343 2008 c21 -7 32 -7 40 1 8 8 0 11 -28 10 -40 -1 -40 -1 -12 -11z"/>
<path d="M920 2009 c-63 -10 -138 -11 -345 -6 -191 4 -192 4 180 -23 169 -12
149 -11 265 -8 52 2 116 1 142 -2 26 -4 53 -3 60 2 8 4 -11 8 -44 8 -31 0 -60
4 -63 10 -3 5 -33 9 -66 9 -32 -1 -65 3 -72 8 -6 5 -32 6 -57 2z"/>
<path d="M1148 2013 c6 -2 18 -2 25 0 6 3 1 5 -13 5 -14 0 -19 -2 -12 -5z"/>
<path d="M3767 2000 c-3 -13 1 -21 15 -26 29 -9 34 4 11 26 -21 19 -21 19 -26
0z"/>
<path d="M768 1943 c6 -2 18 -2 25 0 6 3 1 5 -13 5 -14 0 -19 -2 -12 -5z"/>
<path d="M703 1933 c9 -2 23 -2 30 0 6 3 -1 5 -18 5 -16 0 -22 -2 -12 -5z"/>
<path d="M587 1920 c-67 -12 -74 -24 -9 -16 57 7 114 25 77 24 -11 0 -42 -4
-68 -8z"/>
<path d="M3783 1894 c-6 -13 -7 -24 -3 -24 9 0 25 39 18 45 -2 2 -8 -7 -15
-21z"/>
<path d="M3845 1880 c-4 -6 -9 -8 -13 -6 -4 2 -7 -8 -6 -24 0 -17 13 -39 33
-59 28 -27 39 -32 74 -29 22 2 42 9 45 16 2 7 -2 10 -10 7 -8 -3 -23 3 -33 15
-14 15 -21 17 -32 8 -10 -8 -17 -8 -26 1 -9 10 -8 11 7 5 13 -5 17 -3 14 7 -2
7 -15 16 -29 20 -13 4 -19 7 -14 8 13 1 17 41 5 41 -5 0 -12 -5 -15 -10z"/>
<path d="M3700 1800 c-8 -5 -12 -11 -9 -14 2 -3 11 -1 19 4 8 5 12 11 9 14 -2
3 -11 1 -19 -4z"/>
<path d="M3847 1673 c-16 -15 -6 -38 17 -39 21 -2 22 1 12 22 -11 25 -18 29
-29 17z"/>
<path d="M3827 1570 c-3 -11 -1 -20 4 -20 5 0 9 9 9 20 0 11 -2 20 -4 20 -2 0
-6 -9 -9 -20z"/>
<path d="M232 1010 c0 -19 2 -27 5 -17 2 9 2 25 0 35 -3 9 -5 1 -5 -18z"/>
<path d="M4556 805 c-4 -14 -1 -35 5 -46 8 -15 8 -24 0 -32 -13 -13 -15 -51
-2 -43 4 3 7 -6 5 -19 -1 -14 2 -25 7 -25 6 0 8 -4 5 -9 -3 -5 1 -14 10 -22 8
-7 14 -22 13 -33 -4 -51 2 -96 12 -96 7 0 9 26 7 75 -2 62 0 74 12 72 10 -1
16 11 20 40 8 52 12 57 56 59 27 1 34 -3 34 -18 0 -16 5 -18 38 -12 45 8 54
20 46 59 -9 41 -11 42 -46 22 -21 -12 -34 -14 -42 -7 -7 5 -17 6 -22 1 -14
-13 -73 -21 -79 -12 -3 5 -14 7 -24 4 -16 -4 -20 1 -23 28 -4 40 -23 49 -32
14z m67 -107 c-7 -53 -12 -65 -23 -49 -4 8 -6 20 -3 28 3 7 -1 13 -8 13 -8 0
-6 7 7 19 27 28 31 26 27 -11z"/>
<path d="M4834 804 c11 -45 28 -55 24 -15 -2 19 -9 37 -17 39 -11 4 -12 -2 -7
-24z"/>
<path d="M4847 718 c-10 -35 -8 -50 5 -46 13 5 18 42 8 59 -4 6 -10 1 -13 -13z"/>
<path d="M4158 703 c7 -3 16 -2 19 1 4 3 -2 6 -13 5 -11 0 -14 -3 -6 -6z"/>
</g>
</svg>
